<?xml version="1.0" encoding="utf-8"?>
<!-- Generator: Adobe Illustrator 25.0.0, SVG Export Plug-In . SVG Version: 6.00 Build 0)  -->
<svg version="1.1" id="Layer_1" xmlns="http://www.w3.org/2000/svg" xmlns:xlink="http://www.w3.org/1999/xlink" x="0px" y="0px"
	 viewBox="0 0 50 50" style="enable-background:new 0 0 50 50;" xml:space="preserve">
<g>
	<path d="M46,25c0,4.2,0,7-0.1,8.6c-0.2,3.8-1.3,6.8-3.5,8.9c-2.2,2.1-5,3.2-8.9,3.5C32,46,29.1,46,25,46c-4.2,0-7,0-8.6-0.1
		c-3.8-0.2-6.8-1.3-8.9-3.5c-2.1-2.1-3.2-5-3.5-8.9C4,32,4,29.1,4,25s0-7,0.1-8.6c0.2-3.8,1.3-6.8,3.5-8.9c2.1-2.1,5-3.2,8.9-3.5
		C18,4,20.9,4,25,4c4.2,0,7,0,8.6,0.1c3.8,0.2,6.8,1.3,8.9,3.5s3.2,5,3.5,8.9C45.8,18,46,20.8,46,25z M27,7.9c-1.3,0-1.9,0-2,0
		s-0.7,0-2,0s-2.2,0-2.8,0c-0.6,0-1.6,0-2.6,0.1c-1.1,0-2,0.1-2.8,0.3c-0.8,0.1-1.5,0.3-1.9,0.5c-0.9,0.4-1.6,0.9-2.5,1.6
		c-0.6,0.6-1.2,1.5-1.6,2.5c-0.2,0.5-0.4,1.2-0.5,1.9c-0.1,0.8-0.2,1.6-0.3,2.8c0,1.1-0.1,1.9-0.1,2.6c0,0.6,0,1.6,0,2.8
		c0,1.3,0,1.9,0,2s0,0.8,0,2c0,1.2,0,2.2,0,2.8s0,1.6,0.1,2.6c0,1.1,0.1,2,0.3,2.8c0.2,0.8,0.3,1.5,0.5,1.9c0.4,0.9,0.9,1.6,1.6,2.5
		c0.6,0.6,1.5,1.2,2.5,1.6c0.5,0.2,1.2,0.4,1.9,0.5c0.8,0.1,1.6,0.2,2.8,0.3c1.2,0.1,1.9,0.1,2.6,0.1c0.6,0,1.6,0,2.8,0
		c1.3,0,1.9,0,2,0s0.8,0,2,0c1.2,0,2.2,0,2.8,0s1.6,0,2.6-0.1c1.1,0,2-0.1,2.8-0.3c0.7-0.1,1.5-0.3,1.9-0.5c0.9-0.4,1.6-0.9,2.5-1.6
		c0.6-0.6,1.2-1.5,1.6-2.5c0.2-0.5,0.4-1.2,0.5-1.9c0.1-0.7,0.2-1.6,0.3-2.8c0-1.1,0.1-1.9,0.1-2.6c0-0.6,0-1.6,0-2.8
		c0-1.3,0-1.9,0-2s0-0.7,0-2c0-1.3,0-2.2,0-2.8s0-1.6-0.1-2.6c0-1.1-0.1-2-0.3-2.8c-0.1-0.8-0.3-1.5-0.5-1.9
		c-0.4-0.9-0.9-1.6-1.6-2.5c-0.6-0.6-1.5-1.2-2.5-1.6c-0.5-0.2-1.2-0.4-1.9-0.5S33.7,8.1,32.5,8c-1.1,0-1.9-0.1-2.6-0.1
		C29.3,7.9,28.3,7.9,27,7.9z M32.6,17.3c2.1,2.1,3.1,4.6,3.1,7.7s-1.1,5.5-3.1,7.7c-2.1,2.1-4.6,3.1-7.7,3.1s-5.5-1.1-7.7-3.1
		c-2.1-2.1-3.1-4.6-3.1-7.7s1.1-5.5,3.1-7.7c2.1-2.1,4.6-3.1,7.7-3.1S30.5,15.2,32.6,17.3z M29.9,29.9c1.4-1.4,2.1-3,2.1-4.9
		s-0.7-3.7-2.1-5c-1.4-1.4-3-2.1-5-2.1s-3.7,0.7-5,2.1c-1.4,1.4-2.1,3-2.1,5s0.7,3.7,2.1,4.9c1.4,1.4,3,2.1,5,2.1
		C26.8,31.9,28.6,31.3,29.9,29.9z M38,11.9c0.5,0.5,0.8,1.1,0.8,1.7c0,0.6-0.3,1.3-0.8,1.7c-0.5,0.5-1.1,0.8-1.7,0.8
		S35,16,34.5,15.4c-0.5-0.5-0.8-1.1-0.8-1.7c0-0.6,0.3-1.3,0.8-1.7c0.5-0.5,1.1-0.8,1.7-0.8S37.4,11.5,38,11.9z"/>
</g>
</svg>
