<?xml version="1.0" encoding="utf-8"?>
<!-- Generator: Adobe Illustrator 25.0.0, SVG Export Plug-In . SVG Version: 6.00 Build 0)  -->
<svg version="1.1" id="Ebene_1" xmlns="http://www.w3.org/2000/svg" xmlns:xlink="http://www.w3.org/1999/xlink" x="0px" y="0px"
	 viewBox="0 0 465.1 96.9" style="enable-background:new 0 0 465.1 96.9;" xml:space="preserve">
<g>
	<path d="M460.5,47.9l-7.3-0.9l0-25.8c0-2.7-0.6-5.5-1.9-8.6c-4.9-8.4-11.3-12.6-19.1-12.6h-2.1c-2.8,0-5.9,0.8-9.1,2.3
		c-7.9,4.9-11.9,11.2-11.9,18.9v21c0,0.2,0,0.4,0,0.6h-18.4l-1.5-4c0,0,18.9-37.4,18.9-37.7h-14.9l-16.6,32.6h-0.2V1.2h-14v40.5
		c0,0.4,0,0.8,0,1.2h-4.3V1.2h-14v41.7h-16.8V1.2h-14v41.7c0,0,0,0,0,0h-28.2c0.5-1.4,0.8-3.2,0.8-5.3V22.4c0-7-2.1-12.4-6.3-16.3
		c-3.4-3.3-9.1-4.9-17.2-4.9H242c-0.2,0-0.3,0.1-0.4,0.4v41.4h-30.1V15.2h25.8v-14h-40v41.7h-19.1c0,0,0,0,0,0V15.4H193V1.2h-43.5
		v14.2h14.7v27c0,0.2,0,0.4,0,0.5H129c-8.8-7-13.3-13.7-13.3-20.1v-1.1c0.8-6.1,3.1-9.1,7-9.1h1.2c4.3,0,7,3.7,7.9,11h13.5v-3
		c-0.9-5.9-2.4-10-4.4-12.3c-4.3-5.6-9.8-8.4-16.6-8.4h-2.8c-2.5,0-5.3,0.6-8.2,1.8c-7.9,4.3-11.9,10.9-11.9,20v2.3
		c0,4.6,1.4,9.4,4.2,14.2c1.6,1.9,2.8,3.4,3.7,4.7H96.3V1.2h-14v41.4c0,0.1,0,0.2,0,0.4h-1.4h-3V1.2H58.6
		c-0.2,0.9-2.7,13.9-7.4,39.1c-0.2,1-0.3,1.8-0.6,2.6c-0.1,0-0.1,0-0.2,0c-3,0.3-6.1,0.6-9.1,0.9c-0.5-3.2-3.3-17.3-8.2-42.6H13
		v42.4c0,1.1,0,3.4,0,3.4s-9,1-13,1.5h448.4h4.9h11.9C463.6,48.3,462,48.1,460.5,47.9z M27,45.3v-2.4v-1v-5.5h0.2l1.8,8.6
		C29.1,45,27.6,45.2,27,45.3z M63.8,42.7c0,0.1,0,0.1,0,0.2c-0.5,0-1,0-1.5,0c0.4-1.6,0.8-3.8,1.3-6.7h0.2V42.7z M272,37.7
		c0,0.4-0.1,0.9-0.2,1.6c-0.6,1.5-1.4,2.8-2.3,3.7h-13.8c0,0,0,0,0,0V15.6h8.4c1.1,0,2,0.1,3,0.4c3.3,1,4.9,3.3,4.9,6.8V37.7z
		 M438.7,45.4l-16-1.6c0,0,0-0.7,0-1.1V22c0-0.6,0.1-1.1,0.2-1.8c1.3-4.2,3.9-6.3,7.7-6.3l1.8,0.2c4.2,1.3,6.3,3.9,6.3,7.9V45.4z"/>
	<path d="M464.6,53.4H0.5c3.3,0.4,10,1.3,10,1.3L13,55l0,2.7v38h14V58.1c0-0.5,0-1.5,0-1.5s2.8,0.3,4.3,0.5l7.4,31
		c1,5.1,1.6,7.7,1.9,7.7h11L59.5,59c1.4,0,2.9,0,4.3,0v36.8h14V58.9h3h1.4v36.8h14V58.9h15h12.3c5.5,4.9,8.3,9.7,8.3,14.3
		c0,1.6-0.2,3-0.5,4.2c-1.8,4.3-4.6,6.5-8.4,6.5c-2.5,0-4.5-1.2-6.1-3.5c-1.6-1.6-2.8-5.2-3.7-10.9H99.7c0.1,3.6,0.8,7.5,2.1,11.7
		c4,10.4,11.2,15.6,21.7,15.6c5.3,0,9.8-1.3,13.5-3.9c6-4.9,8.9-11.4,8.9-19.6c0-3.1-0.6-6-1.9-8.9c-0.7-2.2-1.6-4-2.6-5.5h22.7
		v36.8h14V58.9h19.1v36.8h40v-14h-25.8V58.9h30.1v36.8h14V61h9.3l8.4,34.7h15.2l-2.3-8.4c-3.7-15.1-6.2-24.6-7.3-28.4h34v36.8h14
		V58.9h16.8v36.8h14V58.9h4.4v36.8h14V66.6l3.8-7.7h0.6l14.2,36.8h16.5c0-0.3-5-12.5-14.9-36.6c0-0.1-0.1-0.1-0.1-0.2h12.7v16.2
		c0,2.9,0.6,5.7,1.8,8.6c4.7,8.8,11.4,13.1,20.2,13.1c3.1,0,6.2-0.6,9.3-1.9c8.6-4.7,13-11.3,13-19.8V59v-0.7v-3.6l7.2-0.8
		C461.9,53.7,463.2,53.5,464.6,53.4z M46.1,69.3H46c-0.4-2.6-2.2-10.9-2.2-10.9s2.9,0.3,4.3,0.4C47.8,60.5,47.1,64,46.1,69.3z
		 M438.7,74.4c0,2.1-0.7,3.9-2.1,5.4c-1.7,1.6-3.2,2.5-4.7,2.5h-1.8c-0.5,0-0.9-0.1-1.4-0.2c-4-1.4-6-4-6-7.7V58.1
		c5.2-0.5,15.9-1.7,15.9-1.7s0,1.3,0,2.1V74.4z"/>
</g>
</svg>
