<?xml version="1.0" encoding="utf-8"?>
<!-- Generator: Adobe Illustrator 25.0.0, SVG Export Plug-In . SVG Version: 6.00 Build 0)  -->
<svg version="1.1" id="Layer_1" xmlns="http://www.w3.org/2000/svg" xmlns:xlink="http://www.w3.org/1999/xlink" x="0px" y="0px"
	 viewBox="0 0 50 50" style="enable-background:new 0 0 50 50;" xml:space="preserve">
<style type="text/css">
	.st0{display:none;}
	.st1{display:inline;}
</style>
<g class="st0">
	<path class="st1" d="M48,25c0,4.6,0,7.7-0.1,9.4c-0.2,4.2-1.4,7.4-3.8,9.7c-2.4,2.3-5.5,3.5-9.7,3.8C32.7,48,29.5,48,25,48
		c-4.6,0-7.7,0-9.4-0.1c-4.2-0.2-7.4-1.4-9.7-3.8c-2.3-2.3-3.5-5.5-3.8-9.7C2,32.7,2,29.5,2,25s0-7.7,0.1-9.4
		c0.2-4.2,1.4-7.4,3.8-9.7c2.3-2.3,5.5-3.5,9.7-3.8C17.3,2,20.5,2,25,2c4.6,0,7.7,0,9.4,0.1c4.2,0.2,7.4,1.4,9.7,3.8
		s3.5,5.5,3.8,9.7C47.8,17.3,48,20.4,48,25z M27.2,6.3c-1.4,0-2.1,0-2.2,0s-0.8,0-2.2,0c-1.4,0-2.4,0-3.1,0s-1.7,0-2.9,0.1
		c-1.2,0-2.2,0.1-3.1,0.3c-0.9,0.1-1.6,0.3-2.1,0.5c-1,0.4-1.8,1-2.7,1.7c-0.7,0.7-1.3,1.6-1.7,2.7c-0.2,0.5-0.4,1.3-0.5,2.1
		c-0.1,0.9-0.2,1.8-0.3,3.1c0,1.2-0.1,2.1-0.1,2.9c0,0.7,0,1.8,0,3.1c0,1.4,0,2.1,0,2.2s0,0.9,0,2.2s0,2.4,0,3.1s0,1.7,0.1,2.9
		c0,1.2,0.1,2.2,0.3,3.1c0.2,0.9,0.3,1.6,0.5,2.1c0.4,1,1,1.8,1.7,2.7c0.7,0.7,1.6,1.3,2.7,1.7c0.5,0.2,1.3,0.4,2.1,0.5
		c0.9,0.1,1.8,0.2,3.1,0.3c1.3,0.1,2.1,0.1,2.9,0.1c0.7,0,1.8,0,3.1,0c1.4,0,2.1,0,2.2,0s0.9,0,2.2,0s2.4,0,3.1,0
		c0.7,0,1.7,0,2.9-0.1c1.2,0,2.2-0.1,3.1-0.3c0.8-0.1,1.6-0.3,2.1-0.5c1-0.4,1.8-1,2.7-1.7c0.7-0.7,1.3-1.6,1.7-2.7
		c0.2-0.5,0.4-1.3,0.5-2.1s0.2-1.8,0.3-3.1c0-1.2,0.1-2.1,0.1-2.9c0-0.7,0-1.8,0-3.1c0-1.4,0-2.1,0-2.2s0-0.8,0-2.2
		c0-1.4,0-2.4,0-3.1s0-1.7-0.1-2.9c0-1.2-0.1-2.2-0.3-3.1c-0.1-0.9-0.3-1.6-0.5-2.1c-0.4-1-1-1.8-1.7-2.7c-0.7-0.7-1.6-1.3-2.7-1.7
		c-0.5-0.2-1.3-0.4-2.1-0.5s-1.8-0.2-3.1-0.3c-1.2,0-2.1-0.1-2.9-0.1C29.7,6.3,28.6,6.3,27.2,6.3z M33.3,16.6c2.3,2.3,3.4,5,3.4,8.4
		s-1.2,6-3.4,8.4c-2.3,2.3-5,3.4-8.4,3.4s-6-1.2-8.4-3.4c-2.3-2.3-3.4-5-3.4-8.4s1.2-6,3.4-8.4c2.3-2.3,5-3.4,8.4-3.4
		S31,14.3,33.3,16.6z M30.4,30.4c1.5-1.5,2.3-3.3,2.3-5.4s-0.8-4-2.3-5.5s-3.3-2.3-5.5-2.3s-4,0.8-5.5,2.3s-2.3,3.3-2.3,5.5
		s0.8,4,2.3,5.4c1.5,1.5,3.3,2.3,5.5,2.3C27,32.6,28.9,31.9,30.4,30.4z M39.2,10.7c0.5,0.5,0.9,1.2,0.9,1.9s-0.3,1.4-0.9,1.9
		c-0.5,0.5-1.2,0.9-1.9,0.9s-1.4-0.3-1.9-0.9c-0.5-0.5-0.9-1.2-0.9-1.9s0.3-1.4,0.9-1.9c0.5-0.5,1.2-0.9,1.9-0.9
		S38.6,10.2,39.2,10.7z"/>
</g>
<g>
	<path d="M32.9,30.9L32.9,30.9c-6.8-3.1-16.1-1.9-17.1-1.7c-0.5,0.1-0.9,0.4-1.3,0.7c-0.3,0.4-0.5,0.9-0.4,1.4s0.4,0.9,0.7,1.3
		c0.4,0.3,0.9,0.5,1.4,0.4c0.1,0,8.9-1.3,14.9,1.5c0.3,0.1,0.5,0.2,0.8,0.2c0.7,0,1.4-0.5,1.7-1.1c0.2-0.5,0.3-1,0.1-1.5
		C33.8,31.5,33.4,31.1,32.9,30.9z"/>
	<path d="M34.9,24.9L34.9,24.9c-8-3.7-19.3-2-19.3-1.9c-1,0.2-1.7,1.1-1.6,2.2c0.1,0.5,0.4,0.9,0.7,1.3c0.4,0.3,0.9,0.5,1.4,0.4
		c0.5-0.1,10.5-1.5,17.2,1.6c0.3,0.1,0.5,0.2,0.8,0.2c0.7,0,1.4-0.5,1.7-1.1C36.2,26.5,35.9,25.4,34.9,24.9z"/>
	<path d="M36.2,18.7c-8.7-4-20.9-2.3-21.4-2.2c-1,0.2-1.7,1.1-1.6,2.2c0.1,0.5,0.4,0.9,0.7,1.3c0.4,0.3,0.9,0.5,1.4,0.4
		c1.2-0.2,12-1.6,19.3,1.8c0.3,0.1,0.5,0.2,0.8,0.2c0.7,0,1.4-0.5,1.7-1.1C37.5,20.3,37.1,19.1,36.2,18.7z"/>
	<path d="M25,4.1C13.5,4.1,4.1,13.5,4.1,25S13.5,45.9,25,45.9S45.9,36.5,45.9,25S36.5,4.1,25,4.1z M25,42.2
		c-9.5,0-17.2-7.7-17.2-17.2S15.5,7.8,25,7.8S42.2,15.5,42.2,25S34.5,42.2,25,42.2z"/>
</g>
</svg>
